<?xml version="1.0" encoding="UTF-8" standalone="no"?>
<!-- Created with Inkscape (http://www.inkscape.org/) -->

<svg
   xmlns:dc="http://purl.org/dc/elements/1.1/"
   xmlns:cc="http://creativecommons.org/ns#"
   xmlns:rdf="http://www.w3.org/1999/02/22-rdf-syntax-ns#"
   xmlns:svg="http://www.w3.org/2000/svg"
   xmlns="http://www.w3.org/2000/svg"
   xmlns:sodipodi="http://sodipodi.sourceforge.net/DTD/sodipodi-0.dtd"
   xmlns:inkscape="http://www.inkscape.org/namespaces/inkscape"
   width="210mm"
   height="297mm"
   viewBox="0 0 744.09448819 1052.3622047"
   id="svg2"
   version="1.1"
   inkscape:version="0.91 r13725"
   sodipodi:docname="blog.svg">
  <defs
     id="defs4" />
  <sodipodi:namedview
     id="base"
     pagecolor="#ffffff"
     bordercolor="#666666"
     borderopacity="1.0"
     inkscape:pageopacity="0.0"
     inkscape:pageshadow="2"
     inkscape:zoom="1.9565286"
     inkscape:cx="230.08288"
     inkscape:cy="660.64468"
     inkscape:document-units="px"
     inkscape:current-layer="layer1"
     showgrid="false"
     inkscape:window-width="1341"
     inkscape:window-height="824"
     inkscape:window-x="45"
     inkscape:window-y="14"
     inkscape:window-maximized="0" />
  <metadata
     id="metadata7">
    <rdf:RDF>
      <cc:Work
         rdf:about="">
        <dc:format>image/svg+xml</dc:format>
        <dc:type
           rdf:resource="http://purl.org/dc/dcmitype/StillImage" />
        <dc:title></dc:title>
      </cc:Work>
    </rdf:RDF>
  </metadata>
  <g
     inkscape:label="Layer 1"
     inkscape:groupmode="layer"
     id="layer1">
    <flowRoot
       xml:space="preserve"
       id="flowRoot3353"
       style="fill:black;stroke:none;stroke-opacity:1;stroke-width:1px;stroke-linejoin:miter;stroke-linecap:butt;fill-opacity:1;font-family:sans-serif;font-style:normal;font-weight:normal;font-size:40px;line-height:125%;letter-spacing:0px;word-spacing:0px"><flowRegion
         id="flowRegion3355"><rect
           id="rect3357"
           width="106.09756"
           height="46.341465"
           x="85.365852"
           y="295.04514" /></flowRegion><flowPara
         id="flowPara3359"></flowPara></flowRoot>    <flowRoot
       xml:space="preserve"
       id="flowRoot3361"
       style="fill:black;stroke:none;stroke-opacity:1;stroke-width:1px;stroke-linejoin:miter;stroke-linecap:butt;fill-opacity:1;font-family:sans-serif;font-style:normal;font-weight:normal;font-size:40px;line-height:125%;letter-spacing:0px;word-spacing:0px"><flowRegion
         id="flowRegion3363"><rect
           id="rect3365"
           width="54.878048"
           height="102.43903"
           x="117.07317"
           y="257.24026" /></flowRegion><flowPara
         id="flowPara3367"></flowPara></flowRoot>    <flowRoot
       xml:space="preserve"
       id="flowRoot3369"
       style="fill:black;stroke:none;stroke-opacity:1;stroke-width:1px;stroke-linejoin:miter;stroke-linecap:butt;fill-opacity:1;font-family:sans-serif;font-style:normal;font-weight:normal;font-size:40px;line-height:125%;letter-spacing:0px;word-spacing:0px"><flowRegion
         id="flowRegion3371"><rect
           id="rect3373"
           width="191.46341"
           height="114.63415"
           x="51.219513"
           y="271.87439" /></flowRegion><flowPara
         id="flowPara3375"></flowPara></flowRoot>    <flowRoot
       xml:space="preserve"
       id="flowRoot3377"
       style="fill:black;stroke:none;stroke-opacity:1;stroke-width:1px;stroke-linejoin:miter;stroke-linecap:butt;fill-opacity:1;font-family:sans-serif;font-style:normal;font-weight:normal;font-size:40px;line-height:125%;letter-spacing:0px;word-spacing:0px"><flowRegion
         id="flowRegion3379"><rect
           id="rect3381"
           width="108.53658"
           height="57.317074"
           x="81.707314"
           y="297.48416" /></flowRegion><flowPara
         id="flowPara3383"></flowPara></flowRoot>    <path
       style="fill:none;fill-rule:evenodd;stroke:#000000;stroke-width:1px;stroke-linecap:butt;stroke-linejoin:miter;stroke-opacity:1"
       d="m 54.177587,422.16443 c 0.340739,-0.68148 0.630215,-1.3911 1.022218,-2.04444 0.480777,-0.80129 1.626568,-0.69759 2.044438,-1.53333 0.07619,-0.15238 -0.07619,-0.35872 0,-0.51111 0.274713,-0.54942 0.747505,-0.9839 1.022218,-1.53333 0.07619,-0.15238 0,-0.34074 0,-0.5111 0.17037,-0.34074 0.282534,-0.71746 0.51111,-1.02222 0.289127,-0.38551 0.733091,-0.63672 1.022218,-1.02222 0.228575,-0.30477 0.315108,-0.69555 0.511109,-1.02222 0.316043,-0.52674 0.68148,-1.02222 1.022219,-1.53333 0.34074,-0.51111 0.806532,-0.95816 1.022219,-1.53333 0.305027,-0.8134 0.236396,-1.7314 0.511109,-2.55554 0.240939,-0.72282 0.712775,-1.34819 1.022219,-2.04444 0.372619,-0.83839 0.700073,-1.69649 1.022218,-2.55555 0.18917,-0.50445 0.27017,-1.05145 0.51111,-1.53332 0.44427,-0.88854 1.164381,-1.63319 1.533327,-2.55555 0.322635,-0.80659 0.206082,-1.74214 0.51111,-2.55555 0.215687,-0.57516 0.681479,-1.02222 1.022218,-1.53333 0.34074,-0.51111 0.706176,-1.00659 1.022219,-1.53332 0.196001,-0.32667 0.282534,-0.71746 0.511109,-1.02222 0.289127,-0.38551 0.774295,-0.60901 1.022219,-1.02222 0.277188,-0.46198 0.27017,-1.05145 0.511109,-1.53333 0.107752,-0.2155 0.403358,-0.29561 0.51111,-0.51111 0.51539,-1.03078 0.352328,-1.66236 1.022218,-2.55554 0.289127,-0.38551 0.733092,-0.63672 1.022219,-1.02222 0.911233,-1.21498 0.139176,-1.23099 1.022218,-2.55555 0.133649,-0.20047 0.403358,-0.29561 0.51111,-0.51111 0.07619,-0.15238 -0.05388,-0.34948 0,-0.51111 0.357776,-1.07333 1.175551,-1.99332 1.533328,-3.06665 0.222135,-0.66641 0.31813,-1.36902 0.511109,-2.04444 0.148008,-0.51803 0.434918,-0.99999 0.511109,-1.53333 0.09638,-0.67463 -0.133649,-1.37619 0,-2.04444 0.211318,-1.05659 0.829467,-2.00652 1.022219,-3.06665 0.08519,-0.46852 -0.06815,-3.91851 0,-4.59999 0.103117,-1.03117 0.325727,-2.04705 0.511109,-3.06665 0.432581,-2.3792 0.475308,-2.41234 1.022219,-4.59999 0.17037,-0.68148 0.395627,-1.35154 0.511109,-2.04443 0.05602,-0.33611 -0.04819,-0.68491 0,-1.02222 0.122856,-0.85999 0.388254,-1.69556 0.511109,-2.55555 0.04819,-0.33731 -0.08264,-0.69165 0,-1.02222 0.0924,-0.36958 0.418714,-0.65263 0.51111,-1.02222 0.08264,-0.33056 -0.06683,-0.68809 0,-1.02221 0.105659,-0.5283 0.40545,-1.00504 0.511109,-1.53333 0.06683,-0.33412 -0.107751,-0.69897 0,-1.02222 0.07619,-0.22858 0.434918,-0.28254 0.511109,-0.51111 0.107752,-0.32325 0,-0.68148 0,-1.02222 0,-0.17037 -0.07619,-0.35872 0,-0.51111 0.107752,-0.2155 0.403358,-0.2956 0.51111,-0.51111 0.07619,-0.15238 0,-0.34074 0,-0.51111 0,-0.34074 0,-0.68148 0,-1.02222 0,-1.02221 0,-2.04443 0,-3.06665 0,-0.51111 0,-1.02222 0,-1.53333 0,-0.34074 -0.08264,-0.69165 0,-1.02222 0.0924,-0.36958 0.436397,-0.64866 0.511109,-1.02222 0.100237,-0.50118 -0.07228,-1.02735 0,-1.53332 0.09934,-0.6954 0.433536,-1.34629 0.511109,-2.04444 0.09407,-0.84664 0,-1.7037 0,-2.55555 0,-1.02222 0,-2.04444 0,-3.06665 0,-3.91851 0,-7.83701 0,-11.75552 0,-0.61057 0.120348,-3.21672 0,-3.57776 -0.01966,-0.059 -1.415379,0 -1.533328,0 -0.456789,0 -2.392669,-0.0814 -2.555546,0 -0.215503,0.10775 -0.34074,0.34074 -0.51111,0.51111 -1.154716,1.15471 0.152384,-0.30477 -1.022218,2.04443 -0.107751,0.21551 -0.403358,0.29561 -0.511109,0.51111 -0.07619,0.15239 0,0.34074 0,0.51111 0,0.51111 0.123962,1.03748 0,1.53333 -0.05844,0.23375 -0.34074,0.34074 -0.51111,0.51111 -0.17037,0.51111 -0.422538,1.0019 -0.511109,1.53333 -0.425924,2.55554 0.28395,0.5679 0,2.55554 -0.122855,0.85999 -0.403358,1.69354 -0.511109,2.55555 -0.298147,2.38518 0.397529,0.79506 0,3.57777 -0.07619,0.53334 -0.405451,1.00503 -0.51111,1.53332 -0.06682,0.33413 0.06682,0.6881 0,1.02222 -0.105659,0.5283 -0.422538,1.0019 -0.511109,1.53333 -0.08403,0.50415 0.08403,1.02917 0,1.53333 -0.08857,0.53142 -0.363101,1.0153 -0.511109,1.53333 -0.192979,0.67542 -0.395627,1.35154 -0.51111,2.04443 -0.05602,0.33611 0.126548,0.70585 0,1.02222 -1.206105,3.01527 -0.928794,0.044 -1.533328,3.06666 -0.06682,0.33412 0.06683,0.68809 0,1.02222 -0.105658,0.52829 -0.422538,1.0019 -0.511109,1.53332 -0.08403,0.50416 0.07228,1.02736 0,1.53333 -0.09934,0.69539 -0.411767,1.34905 -0.511109,2.04444 -0.07228,0.50597 0.06339,1.02616 0,1.53333 -0.107751,0.86201 -0.403358,1.69353 -0.511109,2.55554 -0.0634,0.50717 0.100236,1.03215 0,1.53333 -0.07471,0.37356 -0.436398,0.64866 -0.51111,1.02222 -0.100237,0.50118 0,1.02222 0,1.53333 0,0.68148 0,1.36296 0,2.04444 0,3.23702 0,6.47405 0,9.71107 0,1.00376 0.117817,3.77527 0,4.59999 -0.07619,0.53334 -0.40545,1.00503 -0.511109,1.53332 -0.06683,0.33413 0,0.68148 0,1.02222 0,1.19259 0.147922,2.39439 0,3.57777 -0.08713,0.69703 -0.411768,1.34904 -0.511109,2.04443 -0.07228,0.50598 0.07228,1.02736 0,1.53333 -0.09934,0.6954 -0.423981,1.34741 -0.51111,2.04444 -0.08453,0.67622 0.08453,1.36822 0,2.04444 -0.08713,0.69703 -0.42398,1.34741 -0.511109,2.04443 -0.08453,0.67622 0,1.36296 0,2.04444 0,1.7037 0,3.4074 0,5.11109 0,1.87407 0,3.74814 0,5.62221 0,0.68148 -0.147834,1.37918 0,2.04443 0.199027,0.89563 0.732089,1.68516 1.022219,2.55555 0.222135,0.66641 0.121458,1.45996 0.511109,2.04444 0.340739,0.51111 1.140077,0.55032 1.533328,1.02222 0.487767,0.58532 0.534451,1.45911 1.022218,2.04443 0.393251,0.4719 1.053659,0.63849 1.533328,1.02222 2.098847,1.67908 -0.197463,0.47129 2.555547,2.04444 0.661529,0.37802 1.410484,0.59958 2.044437,1.02222 0.400947,0.2673 0.609011,0.77429 1.022219,1.02222 0.46198,0.27719 1.022218,0.34074 1.533328,0.51111 0.511109,0.17037 0.998731,0.44428 1.533328,0.51111 0.84527,0.10565 1.723982,-0.1848 2.555546,0 0.743774,0.16528 1.30527,0.83742 2.044437,1.02221 0.661132,0.16529 1.362959,0 2.044438,0 1.533328,0 3.066656,0 4.599983,0 1.533328,0 3.066656,0 4.599984,0 0.340735,0 0.709025,0.13423 1.022215,0 3.4119,-1.46224 2.24828,-1.57636 4.59999,-4.59998 0.44376,-0.57056 1.07059,-0.97804 1.53333,-1.53333 1.24356,-1.49228 2.37763,-3.07255 3.57776,-4.59998 0.67398,-0.85779 1.4727,-1.62647 2.04444,-2.55555 0.79864,-1.29778 1.36296,-2.72591 2.04444,-4.08887 0.5111,-1.02222 1.12305,-1.99996 1.53332,-3.06666 0.44525,-1.15764 0.60506,-2.40971 1.02222,-3.57776 0.5304,-2.43177 2.23304,-4.35196 3.06666,-6.64442 0.29688,-0.81642 0.28253,-1.71744 0.51111,-2.55555 0.28351,-1.03955 0.71259,-2.03459 1.02222,-3.06666 0.5342,-1.78069 0.60534,-2.72405 1.02221,-4.59998 0.59375,-2.67188 0.51111,-1.19798 0.51111,-3.06666 0,-0.68148 0,-1.36295 0,-2.04443 0,-0.34074 0.15239,-0.71746 0,-1.02222 -0.62596,-1.25192 -1.11744,-0.83809 -2.04443,-1.53333 -0.57826,-0.43369 -0.95508,-1.09964 -1.53333,-1.53333 -4.75596,-3.56696 0.71128,0.28451 -2.55555,-1.02222 -0.57034,-0.22813 -0.96298,-0.79408 -1.53333,-1.02222 -0.31636,-0.12654 -0.68148,0 -1.02221,0 -0.34074,0 -0.68148,0 -1.02222,0 -1.02222,0 -2.04444,0 -3.06666,0 -2.38518,0 -4.77035,0 -7.15553,0 -0.34074,0 -0.68148,0 -1.02222,0 -0.17037,0 -0.39064,-0.12046 -0.51111,0 -0.12047,0.12047 0.15239,0.43492 0,0.51111 -0.30583,0.15292 -2.748103,-0.15927 -3.066653,0 -0.215503,0.10776 -0.295607,0.40336 -0.51111,0.51111 -0.304766,0.15239 -0.717452,-0.15238 -1.022218,0 -0.431006,0.21551 -0.591214,0.80672 -1.022219,1.02222 -0.304767,0.15239 -0.781279,-0.24094 -1.022219,0 -0.120469,0.12047 0.152384,0.43492 0,0.51111 -0.823981,0.41199 -1.510196,-0.55737 -2.044437,0.51111 -0.0672,0.13439 0,1.77717 0,2.04444 0,0.85185 0,1.7037 0,2.55554 0,0.17037 -0.120469,0.39064 0,0.51111 0.269378,0.26938 0.705242,0.2998 1.022219,0.51111 0.46527,0.31018 1.080312,1.30682 1.533328,1.53333 0.152383,0.0762 0.358726,-0.0762 0.511109,0 0.215503,0.10775 0.282534,0.43492 0.511109,0.51111 0.323254,0.10775 0.681479,0 1.022219,0 0.511109,0 1.022219,0 1.533328,0 6.133314,0 12.266624,0 18.399934,0 2.72592,0 5.45183,0 8.17775,0 0.85185,0 1.72398,0.18479 2.55555,0 0.74377,-0.16528 1.32162,-0.78128 2.04443,-1.02222 4.7277,-1.5759 2.97347,-0.56824 7.15553,-1.53333 4.02008,-0.92771 3.28014,-1.00538 7.15553,-2.55554 1.23972,-0.49589 6.37346,-2.29075 7.66664,-3.06666 2.79889,-1.67933 6.34516,-5.08755 8.68886,-7.15553 4.99624,-4.40845 4.43573,-3.33138 8.68886,-9.71108 0.97298,-1.45947 1.71023,-3.06304 2.55555,-4.59998 1.02876,-1.87048 2.01624,-3.76379 3.06665,-5.6222 1.16463,-2.0605 2.39189,-4.08498 3.57777,-6.13331 0.6882,-1.18872 1.43016,-2.34921 2.04444,-3.57777 3.7053,-7.41061 0.72813,-1.74683 3.06665,-8.17775 0.26038,-0.71604 0.8728,-1.29731 1.02222,-2.04443 0.20047,-1.00237 0,-2.04444 0,-3.06666 0,-1.7037 0,-3.4074 0,-5.11109 0,-0.0503 0.0264,-3.01395 0,-3.06666 -0.0762,-0.15238 -0.39064,0.12047 -0.51111,0 -0.26938,-0.26938 -0.17037,-0.85185 -0.51111,-1.02222 -0.45715,-0.22857 -1.02222,0 -1.53333,0 -0.34074,0 -0.68148,0 -1.02222,0 -1.19258,0 -2.38517,0 -3.57776,0 -0.68148,0 -1.37223,-0.11203 -2.04444,0 -0.37577,0.0626 -0.68148,0.34074 -1.02222,0.51111 -0.34074,0.17037 -0.71745,0.28254 -1.02221,0.51111 -0.38551,0.28913 -0.64594,0.72119 -1.02222,1.02222 -0.47967,0.38373 -1.05366,0.63848 -1.53333,1.02222 -0.37629,0.30102 -0.64594,0.72119 -1.02222,1.02222 -0.47967,0.38373 -1.06143,0.62896 -1.53333,1.02221 -0.55528,0.46274 -1.02222,1.02222 -1.53333,1.53333 -0.17037,0.17037 -0.2956,0.40336 -0.51111,0.51111 -0.83555,0.41778 -2.55808,0.51619 -3.06665,1.53333 -0.24094,0.48188 -0.34074,1.02222 -0.51111,1.53333 -0.17037,0.51111 -0.3631,1.0153 -0.51111,1.53333 -0.19298,0.67542 -0.26446,1.38671 -0.51111,2.04443 -0.26753,0.71341 -0.85693,1.30067 -1.02222,2.04444 -0.18479,0.83156 0.0848,1.70793 0,2.55555 -0.0864,0.8644 -0.34074,1.70369 -0.51111,2.55554 0,1.19259 0.085,2.38821 0,3.57777 -0.17166,2.40327 -0.83742,4.75323 -1.02222,7.15553 -0.0784,1.01921 0.0849,2.04797 0,3.06665 -0.17212,2.06548 -0.81598,4.07096 -1.02221,6.13332 -0.0678,0.67809 0.0845,1.36822 0,2.04443 -0.17426,1.39406 -0.82354,2.69809 -1.02222,4.08888 -0.19275,1.34926 0.16905,2.73644 0,4.08887 -0.0668,0.5346 -0.38044,1.01066 -0.51111,1.53333 -0.46853,1.87411 -0.77494,4.27871 -1.02222,6.13331 -0.18154,1.36152 -0.43492,2.71743 -0.51111,4.08888 -0.0945,1.70107 0,3.40739 0,5.11109 0,2.21481 0,4.42961 0,6.64442 0,2.55555 0,5.11109 0,7.66664 0,1.5898 -0.22922,3.11932 0.51111,4.59998 0.10775,0.21551 0.34074,0.34074 0.51111,0.51111 0.34074,0.34074 0.68148,0.68148 1.02222,1.02222 0.26908,0.26908 1.26035,1.39684 1.53333,1.53333 0.48187,0.24094 1.0153,0.3631 1.53332,0.51111 0.67543,0.19298 1.34547,0.44121 2.04444,0.51111 1.01715,0.10171 2.04444,0 3.06666,0 0.85184,0 1.70369,0 2.55554,0 2.21481,0 4.42962,0 6.64442,0 0.85185,0 1.72399,0.18479 2.55555,0 1.51867,-0.33748 4.42492,-2.64655 5.6222,-3.57777 0.86111,-0.66974 1.78417,-1.27305 2.55555,-2.04443 0.34929,-0.34929 4.10563,-4.94247 4.59998,-5.62221 0.7226,-0.99357 1.27697,-2.10731 2.04444,-3.06665 3.36167,-4.20209 0.91488,0.28196 3.57777,-4.59999 0.54726,-1.00332 1.0604,-2.02622 1.53332,-3.06665 0.37965,-0.83523 0.49609,-1.80393 1.02222,-2.55555 0.69085,-0.98692 1.81594,-1.60462 2.55555,-2.55554 0.36335,-0.46717 2.2463,-4.49261 2.55554,-5.1111 0.17037,-0.34074 0.2998,-0.70524 0.51111,-1.02222 0.2673,-0.40094 0.80672,-0.59121 1.02222,-1.02222 0.0762,-0.15238 0,-0.34073 0,-0.5111 0,-0.17037 0.16163,-0.56499 0,-0.51111 -1.92492,0.64164 -1.92073,2.00211 -3.06665,3.57776 -0.78264,1.07613 -1.72431,2.02761 -2.55555,3.06666 -2.60369,3.25461 -5.20831,6.50477 -7.15553,10.22218 -0.85142,1.62545 -1.22383,3.46988 -2.04444,5.1111 -0.88854,1.77708 -2.17811,3.33401 -3.06665,5.11109 -0.85093,1.70186 -1.83715,4.5715 -2.04444,6.64442 -0.11867,1.18667 0,2.38518 0,3.57777 0,0.10933 -0.0734,3.46774 0,3.57776 0.21132,0.31698 0.69145,0.3221 1.02222,0.51111 4.30665,2.46094 0.66222,1.12 5.6222,1.53333 1.03274,0.0861 2.03392,0.42505 3.06666,0.51111 1.01868,0.0849 2.04443,0 3.06665,0 1.7037,0 3.4074,0 5.1111,0 1.82154,0 5.38813,0.16866 7.15553,-0.51111 1.14666,-0.44103 2.00545,-1.42541 3.06665,-2.04444 0.98719,-0.57586 2.15236,-0.8476 3.06666,-1.53333 1.15651,-0.86738 2.04443,-2.04443 3.06665,-3.06665 1.02222,-1.02222 2.13286,-1.96308 3.06666,-3.06666 4.06506,-4.80416 1.34868,-2.39765 4.59998,-8.17775 0.71852,-1.27736 1.86587,-2.28461 2.55555,-3.57776 1.68416,-3.15781 2.76684,-8.66885 3.06666,-12.26663 0.0707,-0.8489 0,-1.70369 0,-2.55554 0,-0.85185 0,-1.7037 0,-2.55555 0,-0.85185 0.2066,-1.72913 0,-2.55555 -0.14899,-0.59593 -0.63849,-1.05365 -1.02222,-1.53332 -0.90937,-1.13671 -1.82548,-1.42385 -3.06666,-2.04444 -0.34074,-0.17037 -0.68148,-0.34074 -1.02222,-0.51111 -0.34074,-0.17037 -0.65263,-0.41871 -1.02222,-0.51111 -0.33056,-0.0826 -0.68148,0 -1.02221,0 -1.19259,0 -2.38518,0 -3.57777,0 -2.72592,0 -5.45183,0 -8.17775,0 -1.7037,0 -3.40739,0 -5.11109,0 -0.51111,0 -1.02222,0 -1.53333,0 -0.17037,0 -0.35873,-0.0762 -0.51111,0 -1.13009,0.56505 -0.15861,0.31722 -0.51111,1.02222 -0.10775,0.2155 -0.40336,0.29561 -0.51111,0.51111 -0.0762,0.15238 0,0.34074 0,0.51111 0,0.34074 0.10775,0.69896 0,1.02222 -0.63158,1.89473 -0.51111,-0.62302 -0.51111,1.02221 0,0.17037 0,0.34074 0,0.51111 0,0.17037 -0.14175,0.41661 0,0.51111 0.44828,0.29885 1.03814,0.29889 1.53333,0.51111 0.70031,0.30014 1.31184,0.81291 2.04444,1.02222 0.49144,0.14041 1.02222,0 1.53333,0 0.85184,0 1.70792,-0.0848 2.55554,0 0.86441,0.0864 1.69214,0.41518 2.55555,0.51111 0.67731,0.0753 1.36296,0 2.04444,0 1.02221,0 2.04443,0 3.06665,0 3.23703,0 6.47405,0 9.71108,0 1.53333,0 3.06665,0 4.59998,0 0.68148,0 1.37619,0.13365 2.04444,0 1.05659,-0.21132 2.03679,-0.70534 3.06666,-1.02222 4.31264,-1.32697 2.66274,-0.62241 6.64442,-2.04444 1.37083,-0.48958 2.68924,-1.13343 4.08887,-1.53332 6.52397,-1.86399 -0.42982,1.23713 6.13331,-2.04444 1.02222,-0.51111 2.02622,-1.0604 3.06666,-1.53333 7.17853,-3.26297 -1.51676,1.01394 4.59998,-2.04444 0.68148,-0.34073 1.50568,-0.48346 2.04444,-1.02221 0.53876,-0.53876 0.54625,-1.44948 1.02222,-2.04444 0.23798,-0.29748 0.75284,-0.24173 1.02222,-0.51111 0.26938,-0.26938 0.24173,-0.75284 0.51111,-1.02222 0.62252,-0.62252 1.14192,-0.23941 1.53332,-1.02222 0.0762,-0.15238 -0.0762,-0.35872 0,-0.51111 0.0665,-0.13306 0.91066,-0.62267 0.51111,-1.02222 -0.12047,-0.12047 -0.34074,0 -0.51111,0 -0.17037,0 -0.34074,0 -0.5111,0 -0.51111,0 -1.05878,-0.18982 -1.53333,0 -1.57315,0.62926 -1.38226,1.10581 -2.55555,2.04444 -0.47967,0.38374 -1.06143,0.62897 -1.53333,1.02222 -0.55528,0.46274 -0.9689,1.08179 -1.53333,1.53333 -0.29747,0.23798 -0.79364,0.20634 -1.02221,0.51111 -1.31573,1.75429 0.45322,1.36361 -1.53333,2.55554 -0.46198,0.27719 -1.05145,0.27017 -1.53333,0.51111 -1.90348,0.95174 -1.3711,1.14259 -3.06666,2.55555 -0.4719,0.39325 -0.99998,0.71745 -1.53332,1.02222 -1.13455,0.64831 -2.35374,0.85623 -3.06666,2.04444 -0.27719,0.46198 -0.27017,1.05145 -0.51111,1.53332 -0.77933,1.55866 -0.40519,-0.93479 -1.02222,1.53333 -0.58478,2.33915 1.03238,-0.53143 -0.51111,2.55555 -0.88302,1.76605 -1.21215,1.13962 -1.53332,3.06665 -0.11539,0.69234 0,2.73143 0,3.57777 0,2.04444 0,4.08887 0,6.13331 0,1.7037 0,3.4074 0,5.11109 0,0.34074 0,0.68148 0,1.02222 0,0.17037 -0.0762,0.35873 0,0.51111 0.27471,0.54943 0.79408,0.96299 1.02221,1.53333 0.12655,0.31637 -0.0826,0.69165 0,1.02222 0.0924,0.36958 0.39064,0.66081 0.51111,1.02222 0.10775,0.32325 -0.15238,0.71745 0,1.02222 0.10775,0.2155 0.43492,0.28253 0.51111,0.5111 0.10775,0.32326 -0.18901,0.73871 0,1.02222 0.21132,0.31698 0.75284,0.24173 1.02222,0.51111 0.26938,0.26938 0.31511,0.69555 0.51111,1.02222 0.31604,0.52674 0.70618,1.00659 1.02222,1.53333 1.33978,2.23297 -0.44054,-0.36997 1.02222,2.55555 0.27471,0.54942 0.70617,1.00659 1.02222,1.53332 0.196,0.32667 0.24173,0.75284 0.51111,1.02222 0.26937,0.26938 0.68147,0.34074 1.02221,0.51111 0.34074,0.17037 0.68148,0.34074 1.02222,0.51111 0.68148,0.34074 1.36296,0.68148 2.04444,1.02222 0.34074,0.17037 0.65264,0.41871 1.02222,0.51111 0.33056,0.0826 0.68148,0 1.02222,0 0.51111,0 1.02222,0 1.53333,0 2.75579,0 3.08184,0.49896 5.6222,-1.53333 0.94071,-0.75257 1.60461,-1.81593 2.55554,-2.55555 0.60143,-0.46777 1.43491,-0.56506 2.04444,-1.02221 0.77101,-0.57826 1.27343,-1.46619 2.04444,-2.04444 0.60953,-0.45715 1.41048,-0.59958 2.04444,-1.02222 0.40094,-0.2673 0.64593,-0.72119 1.02221,-1.02222 3.68082,-2.94465 -0.83037,1.47988 3.06666,-3.06665 0.4704,-0.54881 1.02222,-1.02222 1.53333,-1.53333 0.34074,-0.34074 0.80671,-0.59122 1.02222,-1.02222 0.42091,-0.84184 1.86983,-5.946 2.04443,-6.64442 0.55129,-2.20515 1.15965,-4.40233 1.53333,-6.64442 0.8144,-4.88641 0.51111,-9.89546 0.51111,-14.82217 0,-1.53333 0,-3.06666 0,-4.59999 0,-1.90231 0.28925,-3.8214 -0.51111,-5.6222 -0.40346,-0.9078 -1.08906,-1.66701 -1.53333,-2.55555 -0.24093,-0.48187 -0.27017,-1.05145 -0.5111,-1.53332 -0.0489,-0.0978 -1.94661,-1.99552 -2.04444,-2.04444 -0.15239,-0.0762 -0.34948,0.0539 -0.51111,0 -0.36141,-0.12047 -0.66081,-0.39064 -1.02222,-0.51111 -0.16163,-0.0539 -0.34074,0 -0.51111,0 -1.19259,0 -2.38518,0 -3.57776,0 -0.17037,0 -0.39064,-0.12047 -0.51111,0 -0.12047,0.12047 0,0.34074 0,0.51111 0,1.19259 0,2.38518 0,3.57776 0,0.68148 0,1.36296 0,2.04444 0,0.85185 -0.0848,1.70793 0,2.55555 0.18619,1.86196 1.08364,4.44698 1.53332,6.13331 1.08585,4.07191 1.98082,8.19471 3.06666,12.26662 0.31958,1.19843 0.74332,2.36922 1.02222,3.57777 0.23302,1.00978 0.41728,2.03459 0.51111,3.06665 0.0771,0.84835 0,1.7037 0,2.55555 0,1.7037 0,3.4074 0,5.11109 0,2.048 0,1.01866 0,3.06666 0,0.51111 -0.12396,1.03748 0,1.53333 0.22252,0.89007 0.84229,1.65589 1.02222,2.55554 0.16706,0.83531 0,1.7037 0,2.55555 0,1.36296 0,2.72592 0,4.08888 0,2.89628 0,5.79257 0,8.68885 0,8.34812 0,16.69624 0,25.04436 0,2.04444 0,4.08887 0,6.13331 0,0.51111 0,1.02222 0,1.53333 0,0.51111 0.084,1.02917 0,1.53333 -0.26696,1.60175 -1.26337,2.68295 -2.04444,4.08887 -0.37002,0.66604 -0.68148,1.36296 -1.02222,2.04444 -0.68148,1.36296 -1.38929,2.71306 -2.04444,4.08887 -1.04874,2.20237 -1.94379,4.4789 -3.06665,6.64442 -1.26455,2.43878 -2.72592,4.77036 -4.08888,7.15553 -0.96831,1.69456 -4.92519,8.8375 -6.64442,11.24441 -0.77341,1.08278 -1.75717,2.00215 -2.55554,3.06666 -0.47919,0.63891 -1.89451,3.30743 -3.06666,4.08887 -0.14176,0.0945 -0.34074,0 -0.51111,0 -0.51111,0 -1.10806,0.28351 -1.53333,0 -1.79715,-1.1981 -3.67797,-3.59379 -4.59998,-5.6222 -0.44588,-0.98093 -0.60779,-2.07203 -1.02222,-3.06666 -0.43957,-1.05496 -1.17192,-1.98243 -1.53333,-3.06665 -0.8645,-2.59351 -0.33005,-3.92859 -0.51111,-6.64443 -0.0914,-1.37052 -0.35062,-2.72471 -0.51111,-4.08887 -0.18026,-1.5322 -0.42553,-3.0596 -0.51111,-4.59998 -0.0851,-1.53097 0,-3.06666 0,-4.59999 0,-3.06665 0,-6.13331 0,-9.19996 0,-1.19259 0,-2.38518 0,-3.57777 0,-1.02222 -0.34381,-2.10399 0,-3.06666 0.54059,-1.51362 1.75025,-2.6979 2.55555,-4.08887 1.06958,-1.84745 2.07613,-3.73119 3.06666,-5.6222 2.47801,-4.73076 2.78184,-6.26467 6.13331,-10.7333 1.23091,-1.64122 2.63823,-3.14934 4.08887,-4.59998 5.10119,-5.10119 7.13365,-6.66956 12.77774,-10.7333 2.18609,-1.57399 4.2858,-3.29868 6.64442,-4.59998 1.81376,-1.0007 13.06681,-5.56046 15.33328,-6.64442 1.5824,-0.7568 3.10166,-1.64353 4.59998,-2.55555 2.42209,-1.47432 4.88712,-2.89867 7.15553,-4.59998 4.14537,-3.10903 4.52478,-3.8671 7.15553,-7.15553"
       id="path3499"
       inkscape:connector-curvature="0" />
  </g>
</svg>
